<svg width="24" height="24" viewBox="0 0 24 24" fill="none" xmlns="http://www.w3.org/2000/svg">
<path d="M19.5996 0C21.9516 0 23.8716 1.8444 23.994 4.1664L24 4.4004V19.5996C24 21.9516 22.1556 23.8716 19.8336 23.994L19.5996 24H4.4004C3.27381 24.0001 2.19011 23.568 1.37256 22.7929C0.55502 22.0178 0.0659087 20.9586 0.00600014 19.8336L0 19.5996V4.4004C0 2.0484 1.8444 0.1284 4.1664 0.00600014L4.4004 0H19.5996ZM16.4484 8.7516C16.2234 8.52664 15.9182 8.40026 15.6 8.40026C15.2818 8.40026 14.9766 8.52664 14.7516 8.7516L10.8 12.702L9.2484 11.1516L9.1356 11.052C8.89441 10.8655 8.59128 10.7778 8.28777 10.8067C7.98426 10.8356 7.70314 10.979 7.5015 11.2077C7.29986 11.4363 7.19282 11.7332 7.20213 12.0379C7.21143 12.3427 7.33638 12.6325 7.5516 12.8484L9.9516 15.2484L10.0644 15.348C10.2953 15.5271 10.5836 15.6158 10.8752 15.5975C11.1668 15.5791 11.4418 15.455 11.6484 15.2484L16.4484 10.4484L16.548 10.3356C16.7271 10.1047 16.8158 9.81641 16.7975 9.52478C16.7791 9.23315 16.655 8.95823 16.4484 8.7516Z" fill="#F58C1F"/>
</svg>
