<svg width="400" height="99" viewBox="0 0 400 99" fill="none" xmlns="http://www.w3.org/2000/svg">
<path fill-rule="evenodd" clip-rule="evenodd" d="M3.28722 49.3383C2.90426 49.7212 2.90426 50.3421 3.28722 50.7251L50.0062 97.4441C50.3892 97.827 51.0101 97.827 51.393 97.4441L98.112 50.7251C98.495 50.3421 98.495 49.7212 98.112 49.3383L51.393 2.61925C51.0101 2.23629 50.3892 2.23629 50.0062 2.61925L3.28722 49.3383ZM6.75426 50.0317L19.7478 63.0252L32.9703 49.8026V23.8156L6.75426 50.0317ZM30.8116 74.089L21.828 65.1054L35.9122 51.0212V20.8738L40.8153 15.9706V50.602L30.8116 74.089ZM49.1736 92.451L33.0541 76.3315L43.7572 51.2024V13.0287L49.1736 7.6123V92.451ZM68.2518 76.4248L52.1155 92.5612V7.50217L57.509 12.8956V51.2024L68.2518 76.4248ZM81.5849 63.0917L94.645 50.0317L68.2959 23.6825V49.8026L81.5849 63.0917ZM79.5047 65.172L65.354 51.0212V20.7406L60.4508 15.8375V50.602L70.4943 74.1823L79.5047 65.172Z" fill="#ffffff"/>
<path d="M168.296 13.3939C168.296 13.2921 168.213 13.2095 168.111 13.2095H163.779C163.677 13.2095 163.594 13.2921 163.594 13.3939V41.1408C163.594 41.2426 163.677 41.3252 163.779 41.3252H168.111C168.213 41.3252 168.296 41.2426 168.296 41.1408V30.1711H202.311V41.1408C202.311 41.2426 202.393 41.3252 202.495 41.3252H206.828C206.93 41.3252 207.012 41.2426 207.012 41.1408V13.3939C207.012 13.2921 206.93 13.2095 206.828 13.2095H202.495C202.393 13.2095 202.311 13.2921 202.311 13.3939V25.9307H168.296V13.3939Z" fill="#ffffff"/>
<path fill-rule="evenodd" clip-rule="evenodd" d="M325.459 13.8807C325.55 13.749 325.701 13.6704 325.861 13.6704H330.371C330.532 13.6704 330.684 13.7501 330.775 13.8834L349.322 40.9263C349.546 41.2517 349.313 41.6939 348.918 41.6939H345.406C345.244 41.6939 345.093 41.6142 345.002 41.4809L340.343 34.688H316.109L311.417 41.4822C311.325 41.6148 311.174 41.6939 311.013 41.6939H307.047C306.651 41.6939 306.418 41.2487 306.644 40.9236L325.459 13.8807ZM319.038 30.4477H337.434L328.268 17.0829L319.038 30.4477Z" fill="#ffffff"/>
<path d="M119.807 13.3017H115.014V41.3252H120.483C120.583 41.3252 120.681 41.2943 120.764 41.2366L153.731 18.173V41.3252H158.432V13.3017H153.731V13.3443H152.917C152.817 13.3443 152.719 13.3753 152.636 13.4331L119.807 36.4466V13.3017Z" fill="#ffffff"/>
<path fill-rule="evenodd" clip-rule="evenodd" d="M217.06 13.2095C213.7 13.2095 210.976 15.9334 210.976 19.2936V24.2714C210.976 27.6315 213.7 30.3555 217.06 30.3555H232.178V41.1408C232.178 41.2426 232.261 41.3252 232.362 41.3252H236.695C236.797 41.3252 236.879 41.2426 236.879 41.1408V30.3555H251.997C255.357 30.3555 258.081 27.6315 258.081 24.2714V19.2936C258.081 15.9334 255.357 13.2095 251.997 13.2095H217.06ZM236.879 25.9307H251.997C252.914 25.9307 253.657 25.1878 253.657 24.2714V19.2936C253.657 18.3772 252.914 17.6343 251.997 17.6343H236.879V25.9307ZM232.178 17.6343H217.06C216.144 17.6343 215.401 18.3772 215.401 19.2936V24.2714C215.401 25.1878 216.144 25.9307 217.06 25.9307H232.178V17.6343Z" fill="#ffffff"/>
<path fill-rule="evenodd" clip-rule="evenodd" d="M263.059 41.3252V13.3017H299.84C303.2 13.3017 305.924 16.011 305.924 19.353V24.3041C305.924 27.6462 303.2 30.3555 299.84 30.3555H267.76V41.3252H263.059ZM267.76 17.887V25.9545H299.84C300.756 25.9545 301.499 25.2156 301.499 24.3041V19.5374C301.499 18.6259 300.756 17.887 299.84 17.887H267.76Z" fill="#ffffff"/>
<path fill-rule="evenodd" clip-rule="evenodd" d="M134.873 58.1024C134.712 58.1024 134.562 58.181 134.47 58.3127L115.656 85.3556C115.521 85.5728 115.521 85.8493 116.166 85.8493H120.133C120.294 85.8493 120.445 85.7702 120.536 85.6377L125.066 79.1983C125.1 79.1492 125.157 79.12 125.217 79.12H149.074C149.134 79.12 149.19 79.1491 149.225 79.198L153.741 85.5903C153.833 85.7236 153.984 85.8033 154.145 85.8033H158.303C158.697 85.8033 159.018 85.6836 158.795 85.3583L139.787 58.3154C139.695 58.1821 139.544 58.1024 139.382 58.1024H134.873ZM128.401 74.8796C128.252 74.8796 128.165 74.7128 128.249 74.5905L137.128 61.7353C137.201 61.629 137.358 61.6293 137.431 61.7358L146.248 74.591C146.332 74.7133 146.244 74.8796 146.096 74.8796H128.401Z" fill="#ffffff"/>
<path d="M188.426 58.1024H203.509V85.7572H198.808V62.8037H187.993C187.47 62.8037 186.971 63.0265 186.621 63.4163L166.968 85.3272C166.933 85.3662 166.883 85.3884 166.83 85.3884H161.472C161.312 85.3884 161.228 85.1999 161.334 85.0811L182.831 61.0579C183.73 60.0536 184.847 59.2695 186.097 58.7662L186.719 58.516C187.211 58.3179 187.727 58.1896 188.253 58.1341C188.307 58.1135 188.366 58.1024 188.426 58.1024Z" fill="#ffffff"/>
<path d="M310.441 58.1024C310.543 58.1024 310.625 58.1836 310.625 58.2838V70.6151H344.641V58.2838C344.641 58.1836 344.723 58.1024 344.825 58.1024H349.158C349.259 58.1024 349.342 58.1836 349.342 58.2838V85.5758C349.342 85.676 349.259 85.7572 349.158 85.7572H344.825C344.723 85.7572 344.641 85.676 344.641 85.5758V74.7859H310.625V85.5758C310.625 85.676 310.543 85.7572 310.441 85.7572H306.108C306.007 85.7572 305.924 85.676 305.924 85.5758V58.2838C305.924 58.1836 306.007 58.1024 306.108 58.1024H310.441Z" fill="#ffffff"/>
<path fill-rule="evenodd" clip-rule="evenodd" d="M211.253 85.1173C211.253 85.1836 211.29 85.2414 211.345 85.2723V85.2962H248.033C251.393 85.2962 254.117 82.587 254.117 79.2449V74.2938C254.117 70.9518 251.393 68.2425 248.033 68.2425H215.954V58.2813C215.954 58.1825 215.871 58.1024 215.769 58.1024H211.437C211.335 58.1024 211.253 58.1825 211.253 58.2813V85.1173ZM248.033 80.8953H215.954V72.6435H248.033C248.95 72.6435 249.693 73.3823 249.693 74.2938V79.2449C249.693 80.1564 248.95 80.8953 248.033 80.8953Z" fill="#ffffff"/>
<path fill-rule="evenodd" clip-rule="evenodd" d="M300.854 58.1024V58.1271C300.909 58.159 300.946 58.2185 300.946 58.2868V85.1119C300.946 85.2137 300.864 85.2962 300.762 85.2962H296.429C296.327 85.2962 296.245 85.2137 296.245 85.1119V75.2484H272.983L264.035 85.135C263.942 85.2377 263.81 85.2962 263.671 85.2962H258.497C258.337 85.2962 258.253 85.1067 258.36 84.9882L267.175 75.2484H264.165C260.805 75.2484 258.081 72.5244 258.081 69.1643V64.1865C258.081 60.8263 260.805 58.1024 264.165 58.1024H300.854ZM296.245 62.5272H264.165C263.249 62.5272 262.506 63.2701 262.506 64.1865V69.1643C262.506 70.0807 263.249 70.8236 264.165 70.8236H296.245V62.5272Z" fill="#ffffff"/>
<path d="M353.859 64.2786C353.859 61.0203 356.5 58.379 359.759 58.379H391.101C394.359 58.379 397 61.0203 397 64.2786V66.6032C397 66.7172 396.898 66.8036 396.785 66.7911C396.644 66.7756 396.5 66.7676 396.355 66.7676H392.76C392.658 66.7676 392.576 66.685 392.576 66.5832V64.2786C392.576 63.4641 391.915 62.8037 391.101 62.8037H359.759C358.944 62.8037 358.284 63.4641 358.284 64.2786V79.6731C358.284 80.4877 358.944 81.148 359.759 81.148H391.101C391.915 81.148 392.576 80.4877 392.576 79.6731V75.7093C392.576 75.6075 392.658 75.5249 392.76 75.5249H396.355C396.5 75.5249 396.644 75.5169 396.785 75.5014C396.898 75.4888 397 75.5752 397 75.6892V79.6731C397 82.9314 394.359 85.5728 391.101 85.5728H359.759C356.5 85.5728 353.859 82.9314 353.859 79.6731V64.2786Z" fill="#ffffff"/>
</svg>
