<svg width="20" height="20" viewBox="0 0 20 20" fill="none" xmlns="http://www.w3.org/2000/svg">
<g filter="url(#filter0_d_1296_3557)">
<path d="M9.06417 2.48475C9.38935 1.62136 10.6107 1.62136 10.9358 2.48475L12.0003 5.31118C12.1412 5.68508 12.491 5.93927 12.8901 5.95766L15.9072 6.09665C16.8288 6.13911 17.2062 7.30064 16.4856 7.8767L14.1264 9.76253C13.8143 10.012 13.6807 10.4233 13.7865 10.8086L14.5867 13.7209C14.8311 14.6105 13.843 15.3284 13.0725 14.821L10.5499 13.1601C10.2162 12.9404 9.78377 12.9404 9.45007 13.1601L6.92753 14.821C6.15697 15.3284 5.16892 14.6105 5.41333 13.7209L6.21346 10.8086C6.3193 10.4233 6.18566 10.012 5.87358 9.76252L3.51444 7.8767C2.7938 7.30064 3.1712 6.13911 4.09282 6.09665L7.10986 5.95766C7.50897 5.93927 7.85884 5.68508 7.99966 5.31117L9.06417 2.48475Z" fill="#F58C1F"/>
<path d="M11.4037 2.30852C10.916 1.01344 9.08403 1.01344 8.59626 2.30852L7.53175 5.13495C7.46134 5.3219 7.2864 5.44899 7.08685 5.45819L4.06981 5.59718C2.68738 5.66087 2.12127 7.40316 3.20224 8.26726L5.56138 10.1531C5.71742 10.2778 5.78424 10.4835 5.73132 10.6761L4.9312 13.5884C4.56458 14.9229 6.04665 15.9997 7.2025 15.2386L9.72504 13.5777C9.89189 13.4678 10.1081 13.4678 10.275 13.5777L12.7975 15.2386C13.9533 15.9997 15.4354 14.9229 15.0688 13.5884L14.2687 10.6761C14.2158 10.4835 14.2826 10.2778 14.4386 10.1531L16.7978 8.26726C17.8787 7.40316 17.3126 5.66087 15.9302 5.59718L12.9132 5.45819C12.7136 5.44899 12.5387 5.3219 12.4683 5.13495L11.4037 2.30852Z" stroke="white"/>
</g>
<defs>
<filter id="filter0_d_1296_3557" x="0.13562" y="0.837402" width="19.7288" height="19.1558" filterUnits="userSpaceOnUse" color-interpolation-filters="sRGB">
<feFlood flood-opacity="0" result="BackgroundImageFix"/>
<feColorMatrix in="SourceAlpha" type="matrix" values="0 0 0 0 0 0 0 0 0 0 0 0 0 0 0 0 0 0 127 0" result="hardAlpha"/>
<feOffset dy="2"/>
<feGaussianBlur stdDeviation="1"/>
<feComposite in2="hardAlpha" operator="out"/>
<feColorMatrix type="matrix" values="0 0 0 0 0 0 0 0 0 0 0 0 0 0 0 0 0 0 0.25 0"/>
<feBlend mode="normal" in2="BackgroundImageFix" result="effect1_dropShadow_1296_3557"/>
<feBlend mode="normal" in="SourceGraphic" in2="effect1_dropShadow_1296_3557" result="shape"/>
</filter>
</defs>
</svg>
